<?xml version="1.0" standalone="no"?>
<!DOCTYPE svg PUBLIC "-//W3C//DTD SVG 20010904//EN"
 "http://www.w3.org/TR/2001/REC-SVG-20010904/DTD/svg10.dtd">
<svg version="1.0" xmlns="http://www.w3.org/2000/svg"
 width="512.000000pt" height="512.000000pt" viewBox="0 0 512.000000 512.000000"
 preserveAspectRatio="xMidYMid meet">
<metadata>
Created by potrace 1.14, written by Peter Selinger 2001-2017
</metadata>
<g transform="translate(0.000000,512.000000) scale(0.100000,-0.100000)"
fill="#000000" stroke="none">
<path d="M841 5104 c-41 -7 -82 -16 -90 -20 -9 -4 -22 -8 -30 -10 -43 -9 -244
-103 -261 -123 -3 -3 -23 -18 -45 -33 -148 -101 -301 -312 -364 -505 -52 -157
-51 -102 -47 -1888 2 -1466 4 -1667 18 -1720 69 -264 208 -473 412 -616 113
-81 239 -135 391 -170 76 -17 165 -18 1755 -16 l1675 3 80 22 c67 18 138 44
215 76 58 25 195 124 261 189 61 60 177 207 163 207 -3 0 4 12 15 26 21 27 83
180 100 249 6 22 14 54 18 70 4 17 8 779 9 1695 2 1414 0 1675 -12 1730 -8 36
-16 74 -18 85 -28 140 -142 338 -264 461 -59 60 -202 171 -202 158 0 -4 -8 0
-17 8 -44 38 -216 101 -336 123 -108 20 -3319 19 -3426 -1z"/>
</g>
</svg>
